<?xml version="1.0" encoding="utf-8"?>
<!-- Svg Vector Icons : http://www.onlinewebfonts.com/icon -->
<!DOCTYPE svg PUBLIC "-//W3C//DTD SVG 1.1//EN" "http://www.w3.org/Graphics/SVG/1.1/DTD/svg11.dtd">
<svg version="1.1" xmlns="http://www.w3.org/2000/svg" xmlns:xlink="http://www.w3.org/1999/xlink" x="0px" y="0px" viewBox="0 0 1000 1000" enable-background="new 0 0 1000 1000" xml:space="preserve">
<metadata> Svg Vector Icons : http://www.onlinewebfonts.com/icon </metadata>
<g><g transform="translate(0.000000,512.000000) scale(0.100000,-0.100000)"><path 
	style="fill: #fff"
	d="M2017.9,4771.2c-616.3-306.2-599.1-285.2-444.1-555.1c72.7-126.3,28.7-262.2-112.9-357.9c-80.4-53.6-164.6-55.5-250.7-5.7c-168.4,97.6-185.7,103.4-243.1,78.5c-105.3-44-457.5-658.4-530.2-926.4c-51.7-193.3-17.2-252.7,170.4-290.9c342.6-67,342.6-526.4,0-593.4c-135.9-26.8-201-82.3-201-172.3c0-15.3,111-250.7,248.8-522.5c306.3-616.3,285.2-599.1,555.1-444.1c126.3,72.7,262.2,28.7,357.9-112.9c53.6-80.4,55.5-164.6,5.7-250.7c-99.5-172.3-103.4-185.7-76.6-248.8c21.1-51.7,82.3-88.1,520.6-306.3c271.8-137.8,507.2-248.8,522.5-248.8c90,0,145.5,65.1,172.3,201c67,342.6,526.4,342.6,593.4,0c26.8-135.9,82.3-201,172.3-201c15.3,0,250.7,111,522.5,248.8c616.3,306.3,599.1,285.2,444.1,555.1c-49.8,86.1-47.9,170.4,5.7,250.7c95.7,141.6,231.6,185.7,357.9,112.9c172.3-99.5,185.7-103.4,248.8-76.6c51.7,21.1,88,82.3,306.2,520.6c137.8,271.8,248.8,507.2,248.8,522.5c0,90-65.1,145.5-201,172.3c-153.1,28.7-258.4,151.2-258.4,296.7s105.3,268,258.4,296.7c135.9,26.8,201,82.3,201,172.3c0,15.3-111,250.7-248.8,522.5c-306.2,616.3-285.2,599.1-555.1,444.1c-86.1-49.8-170.4-47.9-250.7,5.7c-141.6,95.7-185.7,231.6-112.9,357.9c99.5,172.3,103.4,185.7,76.6,248.8c-21.1,51.7-82.3,88-520.6,306.2C3729.1,4909,3493.6,5020,3478.3,5020c-90,0-145.5-65.1-172.3-201c-67-342.6-526.4-342.6-593.4,0c-26.8,135.9-82.3,201-172.3,201C2525.1,5020,2289.7,4909,2017.9,4771.2z M2500.2,4570.2c82.3-151.2,279.5-283.3,457.5-308.2c111-15.3,275.6,32.5,380.9,112.9c78.5,59.3,193.3,193.3,212.5,246.9c5.8,17.2,97.6-19.1,313.9-126.3l304.3-151.2l-24.9-97.6c-116.8-430.7,264.1-811.6,694.8-694.8l97.6,24.9l151.2-304.3c107.2-216.3,143.6-308.2,126.3-313.9c-53.6-19.1-187.6-134-246.9-212.5c-80.4-105.3-128.2-269.9-112.9-380.9c23-176.1,143.6-357.9,294.8-449.8c40.2-23,74.6-44,80.4-47.9c3.8-3.8-59.3-143.6-141.7-310.1L4936.8,1257l-97.6,24.9c-430.7,116.7-811.6-264.2-694.8-694.8l24.9-97.6L3865,338.2C3648.7,231,3556.8,194.6,3551,211.9c-19.1,53.6-134,187.6-212.5,246.9c-105.3,80.4-269.9,128.2-380.9,112.9c-176.1-23-357.9-143.6-449.8-294.8c-23-40.2-44-74.7-47.9-80.4c-3.8-3.8-143.6,59.3-310.1,141.6l-300.5,151.2l24.9,97.6c116.8,430.7-264.1,811.6-694.8,694.8l-97.6-24.9l-151.2,304.3c-107.2,216.3-143.6,308.2-126.3,313.9c53.6,19.1,187.6,134,246.9,212.5c80.4,105.3,128.2,269.9,112.9,380.9c-24.9,187.6-158.9,377.1-327.3,467c-47.9,24.9-86.1,53.6-86.1,61.2c0,34.5,139.7,317.7,223.9,449.8c65.1,105.3,93.8,137.8,118.7,128.2c380.9-147.4,769.5,78.5,800.1,467c3.8,59.3-3.8,151.2-17.2,202.9l-26.8,95.7l289,147.4c157,80.4,296.7,147.4,306.2,147.4C2456.2,4637.2,2481.1,4606.6,2500.2,4570.2z"/><path 
	style="fill: #fff"
	d="M2764.4,3613.2c-580-132.1-1014.5-698.6-972.3-1270.9c23-298.6,141.6-551.3,365.6-777.1c155-153.1,290.9-239.3,491.9-312c120.6-42.1,170.3-49.8,359.8-47.9c246.9,0,405.8,42.1,608.7,162.7c137.8,80.4,359.8,302.4,440.2,440.2c120.6,202.9,162.7,361.8,162.7,608.7c1.9,189.5-5.7,239.3-47.8,359.8c-72.7,201-158.9,336.9-312,491.9c-155,153.1-292.8,241.2-486.2,308.2C3202.7,3636.1,2936.6,3653.4,2764.4,3613.2z M3248.6,3306.9c407.7-107.2,679.5-461.3,679.5-890c0-518.7-400-918.8-918.7-918.8c-696.7,0-1121.6,702.5-819.2,1353.2c53.6,118.7,266.1,331.1,384.7,384.7C2789.3,3335.6,3036.2,3360.5,3248.6,3306.9z"/><path 
	style="fill: #fff"
	d="M4846.9,4866.9v-153.1H5178c633.6,0,1035.5-86.1,1515.9-325.4c298.6-149.3,547.4-327.3,784.8-564.6c407.7-409.6,708.2-960.9,821.1-1506.4c38.3-191.4,68.9-440.2,68.9-580c0-109.1,21-158.9,459.4-1110.2c302.4-656.5,459.4-1016.4,459.4-1056.6v-63.2h-392.4c-415.4,0-468.9-9.6-505.3-90c-13.4-30.6-21-290.9-21-809.6c0-721.6-1.9-771.4-40.2-884.3c-74.6-231.6-241.2-398.1-472.8-472.8c-112.9-38.3-164.6-40.2-874.7-40.2H6225v-153.1v-153.1h153.1h153.1v-842.2V-4780h153.1h153.1v840.3v840.3l484.3,7.7c459.4,7.6,488.1,9.6,608.7,55.5c183.8,70.8,292.9,139.7,419.2,266.1c126.3,126.3,195.2,235.4,266.1,419.2c47.9,126.3,49.8,128.2,55.5,840.3l5.7,712h390.5c245,0,407.7,7.7,436.4,21c70.8,32.5,90,95.7,90,290.9v176.1L9138.2,677l-457.5,985.7l-23,248.8c-40.2,447.9-132.1,782.9-317.7,1171.4c-338.8,706.3-895.8,1263.3-1602.1,1602.1c-501.5,239.3-953.2,335-1594.4,335h-296.7V4866.9z"/><path 
	style="fill: #fff"
	d="M5947.5,2028.3c-13.4-36.4-65.1-269.9-61.3-271.8c88-23,346.4-116.8,367.5-132.1c23-19.1,23-36.4-1.9-126.3c-116.8-426.8,310.1-855.6,738.8-738.8c57.4,15.3,111,24.9,116.8,19.1c7.6-3.8,32.5-59.3,55.5-124.4l45.9-118.7L7161,499C7013.6,386,6973.4,342,6914,232.9C6856.6,123.8,6849,93.2,6849-33.1c0-118.7,9.6-160.8,51.7-243.1c65.1-126.3,145.5-218.2,231.6-264.1c38.3-21,68.9-47.9,68.9-61.3c0-28.7-74.6-220.1-91.9-239.2c-7.7-7.6-61.3,0-118.7,15.3c-430.7,116.8-855.6-308.2-738.8-738.8c15.3-57.4,23-111,15.3-118.7c-19.1-17.2-210.5-91.9-239.3-91.9c-13.4,0-40.2,30.6-61.3,68.9c-45.9,86.1-137.8,166.5-264.1,231.6c-141.6,72.7-344.5,72.7-486.2,0c-128.3-65.1-218.2-145.5-266.1-233.5c-42.1-78.5-63.2-80.4-225.9-11.5c-72.7,32.5-90,47.9-78.5,74.6c30.6,82.3,49.8,223.9,40.2,296.7c-55.5,361.8-421.1,614.4-758,522.5c-90-24.9-107.2-24.9-126.3-1.9c-15.3,19.1-116.8,304.3-132.1,367.5c-1.9,7.6-268-57.4-281.4-68.9c-38.3-34.4,206.7-606.7,285.2-666.1c53.6-40.2,143.6-26.8,233.5,32.5c99.5,67,222,76.6,325.4,23c99.5-49.8,141.6-120.6,151.2-246.9c5.8-99.5,0-120.6-51.7-197.1c-68.9-101.4-76.6-193.3-21.1-248.8c55.5-55.5,371.3-202.9,539.8-250.7c220.1-65.1,246.9-49.8,335,181.8c49.8,135.9,111,174.2,273.7,174.2c162.7,0,223.9-38.3,273.7-174.2c88.1-231.6,114.8-246.9,335-181.8c170.4,49.8,486.2,197.1,539.8,250.7c55.5,55.5,47.8,147.4-21.1,248.8c-51.7,76.6-57.4,97.6-51.7,197.1c9.6,126.3,51.7,197.1,151.2,246.9c103.4,53.6,225.9,44,325.4-23c99.5-67,191.4-74.7,246.9-19.1c53.6,53.6,201,369.4,250.8,539.8c65.1,220.1,49.8,246.9-181.9,335c-135.9,49.7-174.2,111-174.2,273.7s38.3,224,174.2,273.7c231.6,88,246.9,114.8,181.9,335c-55.5,195.2-218.2,530.2-266.1,557c-67,36.4-143.6,23-233.5-38.3c-76.6-51.7-97.6-57.4-197.1-51.7c-126.3,9.6-197.1,51.7-246.9,151.2c-53.6,103.4-44,225.9,23,325.4c55.5,82.3,70.8,153.1,45.9,216.3C6602.1,1821.6,5968.5,2091.5,5947.5,2028.3z"/><path 
	style="fill: #fff"
	d="M5298.6,713.4c-220.1-55.5-430.7-233.5-534-455.5c-53.6-112.9-61.3-147.4-61.3-290.9s7.7-178,61.3-290.9c84.2-179.9,208.6-306.3,386.6-394.3c132.1-65.1,156.9-70.8,308.2-70.8c151.2,0,176.1,5.7,308.1,70.8c178,88,302.4,214.4,386.7,394.3c53.6,112.9,61.3,147.4,61.3,290.9s-7.7,178-61.3,290.9c-126.3,268-377.1,447.9-647,465.1C5432.6,726.8,5340.7,722.9,5298.6,713.4z M5622.1,405.2c47.9-13.4,111-55.5,164.6-111c233.5-231.6,147.4-650.8-153.1-758c-185.6-65.1-373.2-26.8-501.5,103.4C5007.7-236,4967.5-63.7,5021,127.7c26.8,95.7,158.9,235.4,256.5,269.9C5371.3,430.1,5518.7,433.9,5622.1,405.2z"/><path 
	style="fill: #fff"
	d="M2574.9-802.6L2435.2-860l30.6-68.9c237.3-557,403.9-1035.5,478.5-1382l51.7-239.3l7.7-1114l7.7-1115.9h153.1h155l-9.6,1104.4c-9.6,1188.6-9.6,1184.8-120.6,1621.2c-68.9,271.8-162.7,545.5-325.4,949.4c-78.5,193.3-145.5,354.1-147.4,356C2714.6-745.2,2649.5-770,2574.9-802.6z"/></g></g>
</svg>